<!DOCTYPE svg PUBLIC "-//W3C//DTD SVG 1.1//EN" "http://www.w3.org/Graphics/SVG/1.1/DTD/svg11.dtd">
<!-- Uploaded to: SVG Repo, www.svgrepo.com, Transformed by: SVG Repo Mixer Tools -->
<svg version="1.0" id="Layer_1" xmlns="http://www.w3.org/2000/svg" xmlns:xlink="http://www.w3.org/1999/xlink" width="800px" height="800px" viewBox="0 0 64 64" enable-background="new 0 0 64 64" xml:space="preserve" fill="#2b5891">
<g id="SVGRepo_bgCarrier" stroke-width="0"/>
<g id="SVGRepo_tracerCarrier" stroke-linecap="round" stroke-linejoin="round"/>
<g id="SVGRepo_iconCarrier"> <path fill-rule="evenodd" clip-rule="evenodd" fill="#2b5891" d="M32,0C14.328,0,0,14.328,0,32c0,2.211,1.789,4,4,4h24v16 c0,6.629,5.371,12,12,12s12-5.371,12-12c0-2.211-1.789-4-4-4s-4,1.789-4,4s-1.789,4-4,4s-4-1.789-4-4V36h24c2.211,0,4-1.789,4-4 C64,14.328,49.672,0,32,0z"/> </g>
</svg>